<?xml version="1.0" standalone="no"?>
<svg xmlns:xlink="http://www.w3.org/1999/xlink" id="wave" style="transform:rotate(180deg); transition: 0.3s" viewBox="0 0 1440 100" version="1.1" xmlns="http://www.w3.org/2000/svg"><defs><linearGradient id="sw-gradient-0" x1="0" x2="0" y1="1" y2="0"><stop stop-color="rgb(231,224,205)" offset="0%"/><stop stop-color="rgb(231,224,205)" offset="100%"/></linearGradient></defs><path style="transform:translate(0, 0px); opacity:1" fill="url(#sw-gradient-0)" d="M0,20L14.1,21.7C28.2,23,56,27,85,31.7C112.9,37,141,43,169,48.3C197.6,53,226,57,254,51.7C282.4,47,311,33,339,31.7C367.1,30,395,40,424,43.3C451.8,47,480,43,508,41.7C536.5,40,565,40,593,35C621.2,30,649,20,678,28.3C705.9,37,734,63,762,61.7C790.6,60,819,30,847,26.7C875.3,23,904,47,932,56.7C960,67,988,63,1016,51.7C1044.7,40,1073,20,1101,21.7C1129.4,23,1158,47,1186,56.7C1214.1,67,1242,63,1271,53.3C1298.8,43,1327,27,1355,30C1383.5,33,1412,57,1440,66.7C1468.2,77,1496,73,1525,61.7C1552.9,50,1581,30,1609,26.7C1637.6,23,1666,37,1694,40C1722.4,43,1751,37,1779,43.3C1807.1,50,1835,70,1864,71.7C1891.8,73,1920,57,1948,53.3C1976.5,50,2005,60,2019,65L2032.9,70L2032.9,100L2018.8,100C2004.7,100,1976,100,1948,100C1920,100,1892,100,1864,100C1835.3,100,1807,100,1779,100C1750.6,100,1722,100,1694,100C1665.9,100,1638,100,1609,100C1581.2,100,1553,100,1525,100C1496.5,100,1468,100,1440,100C1411.8,100,1384,100,1355,100C1327.1,100,1299,100,1271,100C1242.4,100,1214,100,1186,100C1157.6,100,1129,100,1101,100C1072.9,100,1045,100,1016,100C988.2,100,960,100,932,100C903.5,100,875,100,847,100C818.8,100,791,100,762,100C734.1,100,706,100,678,100C649.4,100,621,100,593,100C564.7,100,536,100,508,100C480,100,452,100,424,100C395.3,100,367,100,339,100C310.6,100,282,100,254,100C225.9,100,198,100,169,100C141.2,100,113,100,85,100C56.5,100,28,100,14,100L0,100Z"/></svg>