<?xml version="1.0" standalone="no"?>
<svg xmlns:xlink="http://www.w3.org/1999/xlink" id="wave" style="transform:rotate(0deg); transition: 0.3s" viewBox="0 0 1440 100" version="1.1" xmlns="http://www.w3.org/2000/svg"><defs><linearGradient id="sw-gradient-0" x1="0" x2="0" y1="1" y2="0"><stop stop-color="rgb(181,109,74)" offset="0%"/><stop stop-color="rgb(181,109,74)" offset="100%"/></linearGradient></defs><path style="transform:translate(0, 0px); opacity:1" fill="url(#sw-gradient-0)" d="M0,70L10.9,70C21.8,70,44,70,65,60C87.3,50,109,30,131,33.3C152.7,37,175,63,196,73.3C218.2,83,240,77,262,73.3C283.6,70,305,70,327,65C349.1,60,371,50,393,50C414.5,50,436,60,458,58.3C480,57,502,43,524,33.3C545.5,23,567,17,589,23.3C610.9,30,633,50,655,61.7C676.4,73,698,77,720,70C741.8,63,764,47,785,40C807.3,33,829,37,851,33.3C872.7,30,895,20,916,15C938.2,10,960,10,982,13.3C1003.6,17,1025,23,1047,35C1069.1,47,1091,63,1113,60C1134.5,57,1156,33,1178,26.7C1200,20,1222,30,1244,38.3C1265.5,47,1287,53,1309,55C1330.9,57,1353,53,1375,55C1396.4,57,1418,63,1440,61.7C1461.8,60,1484,50,1505,40C1527.3,30,1549,20,1560,15L1570.9,10L1570.9,100L1560,100C1549.1,100,1527,100,1505,100C1483.6,100,1462,100,1440,100C1418.2,100,1396,100,1375,100C1352.7,100,1331,100,1309,100C1287.3,100,1265,100,1244,100C1221.8,100,1200,100,1178,100C1156.4,100,1135,100,1113,100C1090.9,100,1069,100,1047,100C1025.5,100,1004,100,982,100C960,100,938,100,916,100C894.5,100,873,100,851,100C829.1,100,807,100,785,100C763.6,100,742,100,720,100C698.2,100,676,100,655,100C632.7,100,611,100,589,100C567.3,100,545,100,524,100C501.8,100,480,100,458,100C436.4,100,415,100,393,100C370.9,100,349,100,327,100C305.5,100,284,100,262,100C240,100,218,100,196,100C174.5,100,153,100,131,100C109.1,100,87,100,65,100C43.6,100,22,100,11,100L0,100Z"/></svg>