<?xml version="1.0" standalone="no"?>
<svg xmlns:xlink="http://www.w3.org/1999/xlink" id="wave" style="transform:rotate(0deg); transition: 0.3s" viewBox="0 0 1440 100" version="1.1" xmlns="http://www.w3.org/2000/svg"><defs><linearGradient id="sw-gradient-0" x1="0" x2="0" y1="1" y2="0"><stop stop-color="rgba(243, 106, 62, 1)" offset="0%"/><stop stop-color="rgba(255, 179, 11, 1)" offset="100%"/></linearGradient></defs><path style="transform:translate(0, 0px); opacity:1" fill="url(#sw-gradient-0)" d="M0,40L12,48.3C24,57,48,73,72,68.3C96,63,120,37,144,36.7C168,37,192,63,216,75C240,87,264,83,288,80C312,77,336,73,360,70C384,67,408,63,432,66.7C456,70,480,80,504,83.3C528,87,552,83,576,71.7C600,60,624,40,648,35C672,30,696,40,720,40C744,40,768,30,792,33.3C816,37,840,53,864,55C888,57,912,43,936,46.7C960,50,984,70,1008,78.3C1032,87,1056,83,1080,71.7C1104,60,1128,40,1152,38.3C1176,37,1200,53,1224,55C1248,57,1272,43,1296,38.3C1320,33,1344,37,1368,36.7C1392,37,1416,33,1440,30C1464,27,1488,23,1512,18.3C1536,13,1560,7,1584,6.7C1608,7,1632,13,1656,28.3C1680,43,1704,67,1716,78.3L1728,90L1728,100L1716,100C1704,100,1680,100,1656,100C1632,100,1608,100,1584,100C1560,100,1536,100,1512,100C1488,100,1464,100,1440,100C1416,100,1392,100,1368,100C1344,100,1320,100,1296,100C1272,100,1248,100,1224,100C1200,100,1176,100,1152,100C1128,100,1104,100,1080,100C1056,100,1032,100,1008,100C984,100,960,100,936,100C912,100,888,100,864,100C840,100,816,100,792,100C768,100,744,100,720,100C696,100,672,100,648,100C624,100,600,100,576,100C552,100,528,100,504,100C480,100,456,100,432,100C408,100,384,100,360,100C336,100,312,100,288,100C264,100,240,100,216,100C192,100,168,100,144,100C120,100,96,100,72,100C48,100,24,100,12,100L0,100Z"/></svg>