<?xml version="1.0" standalone="no"?>
<svg xmlns:xlink="http://www.w3.org/1999/xlink" id="wave" style="transform:rotate(180deg); transition: 0.3s" viewBox="0 0 1440 100" version="1.1" xmlns="http://www.w3.org/2000/svg"><defs><linearGradient id="sw-gradient-0" x1="0" x2="0" y1="1" y2="0"><stop stop-color="rgb(181,109,74)" offset="0%"/><stop stop-color="rgb(181,109,74)" offset="100%"/></linearGradient></defs><path style="transform:translate(0, 0px); opacity:1" fill="url(#sw-gradient-0)" d="M0,20L12,21.7C24,23,48,27,72,31.7C96,37,120,43,144,48.3C168,53,192,57,216,51.7C240,47,264,33,288,31.7C312,30,336,40,360,43.3C384,47,408,43,432,41.7C456,40,480,40,504,35C528,30,552,20,576,28.3C600,37,624,63,648,61.7C672,60,696,30,720,26.7C744,23,768,47,792,56.7C816,67,840,63,864,51.7C888,40,912,20,936,21.7C960,23,984,47,1008,56.7C1032,67,1056,63,1080,53.3C1104,43,1128,27,1152,30C1176,33,1200,57,1224,66.7C1248,77,1272,73,1296,61.7C1320,50,1344,30,1368,26.7C1392,23,1416,37,1440,40C1464,43,1488,37,1512,43.3C1536,50,1560,70,1584,71.7C1608,73,1632,57,1656,53.3C1680,50,1704,60,1716,65L1728,70L1728,100L1716,100C1704,100,1680,100,1656,100C1632,100,1608,100,1584,100C1560,100,1536,100,1512,100C1488,100,1464,100,1440,100C1416,100,1392,100,1368,100C1344,100,1320,100,1296,100C1272,100,1248,100,1224,100C1200,100,1176,100,1152,100C1128,100,1104,100,1080,100C1056,100,1032,100,1008,100C984,100,960,100,936,100C912,100,888,100,864,100C840,100,816,100,792,100C768,100,744,100,720,100C696,100,672,100,648,100C624,100,600,100,576,100C552,100,528,100,504,100C480,100,456,100,432,100C408,100,384,100,360,100C336,100,312,100,288,100C264,100,240,100,216,100C192,100,168,100,144,100C120,100,96,100,72,100C48,100,24,100,12,100L0,100Z"/></svg>